<svg width="68" height="68" viewBox="0 0 68 68" fill="none" xmlns="http://www.w3.org/2000/svg">
<path d="M34.0043 67.9062C52.7347 67.9062 67.9105 52.7305 67.9105 34C67.9105 15.2695 52.7347 0.09375 34.0043 0.09375C15.2738 0.09375 0.0980225 15.2695 0.0980225 34C0.0980225 52.7305 15.2738 67.9062 34.0043 67.9062ZM18.1449 27.9844H34.0043V18.291C34.0043 16.8281 35.7816 16.0898 36.807 17.1289L52.434 32.8379C53.0765 33.4805 53.0765 34.5059 52.434 35.1484L36.807 50.8711C35.7679 51.9102 34.0043 51.1719 34.0043 49.709V40.0156H18.1449C17.2426 40.0156 16.5043 39.2773 16.5043 38.375V29.625C16.5043 28.7227 17.2426 27.9844 18.1449 27.9844Z" fill="black"/>
</svg>
